HIERARCHY
ROOT hip
{
	OFFSET 0.000000 0.000000 0.000000 
	CHANNELS 6 Xposition Yposition Zposition Xrotation Zrotation Yrotation
	JOINT abdomen
	{
		OFFSET 0.000000 3.402643 0.000000 
		CHANNELS 3 Xrotation Zrotation Yrotation
		JOINT chest
		{
			OFFSET 0.000000 8.438565 -0.680529 
			CHANNELS 3 Xrotation Zrotation Yrotation
			JOINT neck
			{
				OFFSET 0.000000 10.207942 -0.272212 
				CHANNELS 3 Xrotation Zrotation Yrotation
				JOINT head
				{
					OFFSET 0.000000 3.130431 0.000000 
					CHANNELS 3 Xrotation Zrotation Yrotation
					End Site
					{
						OFFSET 0.000000 3.130435 0.000000 
					}
				}
			}
			JOINT lCollar
			{
				OFFSET 3.470700 6.669187 -0.816635 
				CHANNELS 3 Yrotation Zrotation Xrotation
				JOINT lShldr
				{
					OFFSET 3.198488 0.000000 0.000000 
					CHANNELS 3 Zrotation Yrotation Xrotation
					JOINT lForeArm
					{
						OFFSET 10.139888 0.000000 0.000000 
						CHANNELS 3 Yrotation Zrotation Xrotation
						JOINT lHand
						{
							OFFSET 8.370511 0.000000 0.000000 
							CHANNELS 3 Zrotation Yrotation Xrotation
							End Site
							{
								OFFSET 4.083176 0.000000 0.000000 
							}
						}
					}
				}
			}
			JOINT rCollar
			{
				OFFSET -3.470700 6.669187 -0.816635 
				CHANNELS 3 Yrotation Zrotation Xrotation
				JOINT rShldr
				{
					OFFSET -3.198488 0.000000 0.000000 
					CHANNELS 3 Zrotation Yrotation Xrotation
					JOINT rForeArm
					{
						OFFSET -10.139888 0.000000 0.000000 
						CHANNELS 3 Yrotation Zrotation Xrotation
						JOINT rHand
						{
							OFFSET -8.370511 0.000000 0.000000 
							CHANNELS 3 Zrotation Yrotation Xrotation
							End Site
							{
								OFFSET -4.083176 0.000000 0.000000 
							}
						}
					}
				}
			}
		}
	}
	JOINT lThigh
	{
		OFFSET 5.308129 -1.633274 1.361059 
		CHANNELS 3 Xrotation Zrotation Yrotation
		JOINT lShin
		{
			OFFSET -2.041588 -20.007561 0.000000 
			CHANNELS 3 Xrotation Zrotation Yrotation
			JOINT lFoot
			{
				OFFSET 0.000000 -19.190928 -1.224953 
				CHANNELS 3 Xrotation Yrotation Zrotation
				End Site
				{
					OFFSET 0.000000 -2.449906 4.627600 
				}
			}
		}
	}
	JOINT rThigh
	{
		OFFSET -5.308129 -1.633274 1.361059 
		CHANNELS 3 Xrotation Zrotation Yrotation
		JOINT rShin
		{
			OFFSET 2.041588 -20.007561 0.000000 
			CHANNELS 3 Xrotation Zrotation Yrotation
			JOINT rFoot
			{
				OFFSET 0.000000 -19.190928 -1.224953 
				CHANNELS 3 Xrotation Yrotation Zrotation
				End Site
				{
					OFFSET 0.000000 -2.449906 4.627600 
				}
			}
		}
	}
}
MOTION
Frames: 19
Frame Time: 0.016667
31.963705 69.450188 -18.814697 176.268997 178.938004 -2.539960 -17.413401 -0.203722 2.567730 17.099600 -0.253444 1.333670 12.811500 0.327347 4.241660 9.748970 5.799030 2.516540 2.000000 -2.000000 0.000000 -77.605003 -11.208400 164.526993 26.719000 -0.336966 0.061530 0.047053 -0.027754 -146.882996 -2.000000 2.000000 0.000000 84.687401 14.019200 -165.796997 -48.799301 0.304904 0.102871 -0.055889 0.021809 -144.733994 -40.844139 3.051430 16.331972 65.748413 0.226152 4.422195 -209.422653 -181.723587 179.917725 -12.461623 5.816102 13.470108 34.815689 -3.219887 -2.359232 11.586927 -1.627980 3.125286 
31.789469 69.954475 -19.216196 176.238998 178.363007 -1.855610 -17.375900 -0.247522 2.478490 17.187500 -0.311960 1.287900 12.735100 0.392920 4.222910 9.739400 5.818590 2.507720 2.000000 -2.000000 0.000000 -77.634300 -11.628900 164.264008 26.250299 -0.337465 0.060529 0.047221 -0.028696 -147.223999 -2.000000 2.000000 0.000000 85.019203 13.648100 -165.798004 -49.297298 0.304007 0.103650 -0.055926 0.022080 -144.832001 -39.640633 2.999233 16.184704 63.961620 0.385524 4.328517 -208.667267 -181.960449 180.071152 -12.577863 6.062332 13.422744 34.555347 -3.170476 -2.357209 -164.070740 -177.036133 -176.477020 
31.622650 70.435173 -19.605673 176.393997 177.992004 -1.102980 -17.367201 -0.256345 2.399330 17.255800 -0.175490 1.240590 13.014400 0.538801 3.987030 9.867850 5.885020 2.390800 2.000000 -2.000000 0.000000 -78.073402 -11.972600 163.434006 25.849899 -0.337885 0.059670 0.047081 -0.027915 -146.940994 -2.000000 2.000000 0.000000 85.018898 13.188800 -165.643005 -49.150902 0.304271 0.103422 -0.056144 0.023596 -145.378998 -38.268444 2.673963 15.903527 62.234619 0.535947 4.256636 -208.211075 -181.461456 179.748566 -12.833243 6.081745 12.910797 35.112068 -3.105302 -2.399285 -160.804672 -176.240433 -176.147476 
31.452341 70.905083 -19.976725 176.470993 177.475006 -0.389853 -17.417299 -0.249632 2.306230 17.412100 -0.195018 1.192350 13.680300 -0.664171 4.410020 10.137900 5.502830 2.661620 2.000000 -2.000000 0.000000 -78.609901 -12.003800 162.604004 25.527599 -0.338218 0.058977 0.046590 -0.024975 -145.876999 -2.000000 2.000000 0.000000 85.116302 12.739800 -165.740997 -48.242599 0.305899 0.101992 -0.055596 0.019558 -143.923996 -36.984165 2.428383 15.481530 60.535686 0.698707 4.163623 -207.554962 -181.491302 179.760040 -13.243010 6.207724 12.227572 35.975182 -3.024679 -2.480476 19.839605 -3.278114 3.633737 
31.302710 71.346008 -20.310707 176.822998 177.522995 0.341226 -17.398899 -0.385549 2.276910 17.460899 -0.068260 1.156040 14.042900 -1.340130 4.640100 10.311900 5.296800 2.821200 2.000000 -2.000000 0.000000 -79.146797 -12.004500 162.272003 25.302999 -0.338448 0.058493 0.046472 -0.024219 -145.602997 -2.000000 2.000000 0.000000 85.164902 12.310100 -165.723007 -46.924301 0.308222 0.099869 -0.055488 0.018662 -143.600998 -35.324944 1.707062 15.333481 58.720039 0.853732 4.082954 -206.910538 -181.193832 179.536987 -13.899269 5.783222 11.470219 38.104126 -2.927224 -2.595424 16.962444 -1.997441 3.005435 
31.175095 71.782104 -20.606607 177.244003 177.600006 0.861173 -17.407801 -0.469900 2.385300 17.441401 0.048756 1.198530 14.778800 -1.865880 4.515240 10.701700 5.097910 2.815090 2.000000 -2.000000 0.000000 -79.742302 -11.770300 162.233002 25.478800 -0.338268 0.058872 0.046229 -0.022568 -145.007996 -2.000000 2.000000 0.000000 85.155296 11.920600 -166.222000 -45.469200 0.310727 0.097466 -0.055158 0.015590 -142.498001 -33.533512 1.169133 15.373236 56.688519 1.000864 3.979424 -205.977966 -180.976822 179.405334 -14.849593 5.377469 10.699111 40.845257 -2.766491 -2.771255 -166.985092 -178.684265 -177.460999 
31.038376 72.262352 -20.913626 177.703003 177.746002 1.745630 -17.496901 -0.610948 2.370460 17.431601 0.136515 1.164420 14.214300 -1.832280 4.664200 10.358800 5.121490 2.864980 2.000000 -2.000000 0.000000 -80.435600 -11.252200 162.436996 25.586201 -0.338158 0.059104 0.046248 -0.022704 -145.057007 -2.000000 2.000000 0.000000 85.165100 11.160600 -166.966003 -44.033600 0.313139 0.095033 -0.054901 0.012675 -141.453003 -31.749277 0.469124 15.200107 54.714935 1.151597 3.867333 -205.113831 -180.598618 179.172897 -15.820699 4.736664 9.513990 43.819111 -2.605025 -2.962120 -171.016159 -177.009476 -177.657883 
30.918060 72.707314 -21.238508 178.397003 177.559998 2.920070 -17.527700 -0.648420 2.270550 17.480499 0.117019 1.106990 14.220200 -1.452220 4.779830 10.360500 5.257370 2.919070 2.000000 -2.000000 0.000000 -81.206902 -10.675800 162.552994 25.537399 -0.338208 0.058998 0.046168 -0.022135 -144.850998 -2.000000 2.000000 0.000000 85.184799 10.371900 -167.964005 -42.773899 0.315204 0.092850 -0.054730 0.010302 -140.602997 -29.798510 0.095204 14.737699 52.896847 1.326530 3.763264 -204.460587 -179.789261 178.725189 -16.557968 4.492846 8.322187 46.800823 -2.420360 -3.131880 -175.575363 -173.173035 -178.092392 
30.799435 73.107697 -21.578894 179.031998 177.587997 4.383140 -17.628500 -0.696133 2.032530 17.558599 0.302320 0.980260 14.397200 -1.267940 4.784710 10.400900 5.353940 2.924590 2.000000 -2.000000 0.000000 -82.212196 -9.817250 162.179993 25.449499 -0.338298 0.058809 0.046123 -0.021810 -144.733994 -2.000000 2.000000 0.000000 84.960098 9.348230 -168.697998 -41.904701 0.316601 0.091316 -0.054733 0.010357 -140.623001 -27.887499 -0.566900 14.180859 50.912880 1.474060 3.653573 -203.696091 -179.068634 178.348724 -17.252256 3.994322 7.414503 49.427803 -2.236041 -3.287657 -180.517548 -168.799484 -179.262146 
30.690464 73.453812 -21.912088 179.735992 177.852005 5.947150 -17.747299 -0.743262 1.907180 17.538900 0.546117 0.898946 14.781100 -0.957294 4.784110 10.510700 5.498140 2.931570 2.000000 -2.000000 0.000000 -83.168800 -9.495720 161.856995 24.658501 -0.339097 0.057099 0.046014 -0.020997 -144.440994 -2.000000 2.000000 0.000000 84.804001 8.042940 -170.108002 -41.328499 0.317514 0.090289 -0.054785 0.011121 -140.895996 -26.005507 -1.412928 13.506850 49.133289 1.612700 3.526975 -203.124619 -178.623947 178.076187 -17.882118 3.348517 7.038727 51.796825 -2.070646 -3.407937 -185.580154 -165.556442 -180.943420 
30.549145 73.783524 -22.244385 -179.501999 178.145004 8.053550 -17.819300 -0.923390 1.649160 17.538900 0.575373 0.750919 14.890900 -0.933676 4.746970 10.549900 5.497630 2.925550 2.000000 -2.000000 0.000000 -84.164497 -9.193850 161.475006 23.847900 -0.339892 0.055336 0.046119 -0.021783 -144.723999 -2.000000 2.000000 0.000000 84.745499 6.542620 -171.634995 -41.211300 0.317699 0.090078 -0.054858 0.012130 -141.257996 -24.050392 -2.479773 12.279094 47.401741 1.764726 3.407979 -202.562973 -178.199661 177.810745 -18.292816 2.530536 6.505967 53.810867 -1.943816 -3.518641 -191.344147 -163.517441 -183.103073 
30.437592 74.066277 -22.542530 1.094150 1.552450 -170.175003 -17.869499 -1.031650 1.582850 17.587700 0.663171 0.698030 14.977700 -0.481588 4.498670 10.590800 5.623230 1.928120 2.000000 -2.000000 0.000000 -85.140701 -9.107010 161.005997 22.949499 -0.340743 0.053369 0.046142 -0.021946 -144.783005 -2.000000 2.000000 0.000000 -95.391098 174.763000 6.975390 -40.967201 0.318081 0.089639 -0.054970 0.013520 -141.755997 -22.259016 -3.393709 11.096561 45.631466 1.898825 3.296306 -202.133652 -177.675812 177.485291 -19.184755 1.932268 6.629390 55.754757 -1.810601 -3.591985 -15.834136 -18.121807 -5.126319 
30.349184 74.304993 -22.829556 1.699550 1.122550 -168.315994 -17.929001 -1.113350 1.559640 17.538799 0.789919 0.544298 14.873700 -0.268277 4.483280 10.533200 5.721040 1.913870 2.000000 -2.000000 0.000000 -86.067902 -9.059700 160.332001 22.011999 -0.341598 0.051302 0.045768 -0.019043 -143.738007 -2.000000 2.000000 0.000000 -95.713303 175.990997 5.868960 -40.576599 0.318690 0.088933 -0.055051 0.014446 -142.087997 -20.547401 -4.342308 9.896701 44.115513 2.017594 3.186681 -201.648804 -177.542877 177.374176 -19.986547 1.311684 7.063909 57.386841 -1.668657 -3.692901 -19.039471 -18.528944 -6.462691 
30.253582 74.555740 -23.123657 2.178020 0.927064 -166.263000 -17.948700 -1.035970 1.432620 17.675200 1.121630 0.363482 14.887600 -0.245901 4.413500 10.553100 5.740180 1.888730 2.000000 -2.000000 0.000000 -87.151497 -9.001970 159.951004 21.406500 -0.342133 0.049960 0.045697 -0.018446 -143.522995 -2.000000 2.000000 0.000000 -96.289398 177.033997 5.055920 -39.853901 0.319803 0.087617 -0.055053 0.014474 -142.098007 -19.034107 -5.024003 8.450510 42.707054 2.134690 3.089356 -201.185394 -176.899078 177.008347 -20.794994 1.114588 7.550738 58.420219 -1.553743 -3.763754 -21.422167 -18.506845 -7.338688 
30.163710 74.761993 -23.412703 2.500050 0.370741 -164.046005 -17.980600 -1.264640 1.323170 17.733801 1.189960 0.273373 14.843800 -0.253475 4.676860 10.514100 5.760110 2.023740 2.000000 -2.000000 0.000000 -87.844704 -8.836100 159.882996 21.045200 -0.342445 0.049156 0.045774 -0.019098 -143.757996 -2.000000 2.000000 0.000000 -96.455399 177.755005 4.351080 -38.613701 0.321675 0.085324 -0.054951 0.013302 -141.677994 -17.498362 -6.100235 6.889836 41.139694 2.263271 2.966223 -200.502823 -176.888000 176.951279 -21.603806 0.760587 8.478428 59.079742 -1.463889 -3.799510 -22.942329 -17.828007 -7.560018 
30.106421 74.982277 -23.707027 2.753910 0.009754 -161.757004 -18.054001 -1.743560 1.296540 17.704901 0.712008 0.208676 14.986900 -0.118970 4.777870 10.612800 5.797590 2.096590 2.000000 -2.000000 0.000000 -87.883904 -8.454630 160.154999 21.074499 -0.342420 0.049221 0.046279 -0.022920 -145.134995 -2.000000 2.000000 0.000000 -96.005997 178.298996 3.353680 -37.070702 0.323934 0.082417 -0.055172 0.015726 -142.546997 -16.096464 -6.878835 5.160793 39.593262 2.371672 2.870814 -199.835648 -176.563812 176.752563 -22.282745 1.019200 10.055170 58.866226 -1.433206 -3.809549 -22.922283 -16.793457 -6.948838 
30.051823 75.239319 -24.031687 2.861340 -0.126795 -159.429993 -18.202000 -1.858670 1.268090 17.646200 0.750983 0.176668 14.919300 -0.274877 4.904630 10.612200 5.749080 2.178910 2.000000 -2.000000 0.000000 -88.343102 -7.691570 160.748993 21.591999 -0.341971 0.050372 0.047192 -0.028534 -147.166000 -2.000000 2.000000 0.000000 -95.966904 178.628006 2.161490 -34.902699 0.326973 0.078231 -0.055819 0.021294 -144.548996 -14.903300 -7.373101 3.266216 38.093548 2.486253 2.753093 -199.288895 -175.998047 176.444824 -22.985071 1.875429 12.353092 57.819328 -1.452808 -3.797513 -23.089561 -15.688846 -6.225881 
29.991047 75.480164 -24.366341 2.919950 -0.234071 -156.593994 -18.290800 -1.882240 1.094430 17.646099 0.975303 0.087141 14.367100 -0.574863 4.741410 10.394500 5.616110 2.132510 2.000000 -2.000000 0.000000 -89.054802 -7.743710 159.274994 21.269800 -0.342251 0.049656 0.047114 -0.028104 -147.009995 -2.000000 2.000000 0.000000 -95.839798 178.895996 -0.270611 -32.617500 0.330003 0.073698 -0.056061 0.023028 -145.173996 -13.759438 -7.830283 1.092087 36.699783 2.608091 2.632672 -17.994032 -5.003651 -3.973252 -23.291609 2.719654 14.641597 55.800747 -1.516712 -3.722305 -22.468899 -13.611213 -4.777009 
29.911066 75.700127 -24.757614 2.754100 -0.673050 -153.479996 -18.393101 -2.223860 0.934463 17.773001 0.965656 -0.037177 13.282300 -1.174400 4.635510 9.929100 5.272200 2.128730 2.000000 -2.000000 0.000000 -89.132202 -7.667520 158.406006 20.683800 -0.342752 0.048350 0.047385 -0.029583 -147.546997 -2.000000 2.000000 0.000000 -95.273598 179.319000 -3.025720 -30.224899 0.332979 0.068826 -0.055797 0.021132 -144.490005 -12.444410 -8.553496 -1.054470 34.990562 2.730227 2.494036 -17.094645 -6.092452 -4.408280 -23.347696 3.145631 17.269386 53.222099 -1.631461 -3.626895 -22.020950 -10.956607 -3.049178 
